<svg width="72" height="61" viewBox="0 0 72 61" fill="none" xmlns="http://www.w3.org/2000/svg">
<path d="M41.5 31.1559C41.5 48.0006 41.5 41.4866 41.5 61C58.3447 61 72 47.3447 72 30.5C72 13.6553 58.3447 0 41.5 0C41.5 20.3333 41.5 14.3112 41.5 31.1559Z" fill="#ECECEC"/>
<path d="M41.5 31.1559C41.5 48.0006 41.5 41.4866 41.5 61C24.6553 61 11 47.3447 11 30.5C11 13.6553 24.6553 0 41.5 0C41.5 20.3333 41.5 14.3112 41.5 31.1559Z" fill="#1246B0"/>
<rect x="30.1309" y="13.4463" width="22.7384" height="10.9319" rx="5.46595" fill="#1246B0"/>
<rect y="25" width="22.7384" height="10.9319" rx="5.46595" fill="#1246B0"/>
<rect x="30.1309" y="36.6221" width="22.7384" height="10.9319" rx="5.46595" fill="#1246B0"/>
</svg>
