<svg width="36" height="36" viewBox="0 0 36 36" fill="none" xmlns="http://www.w3.org/2000/svg">
<rect width="36" height="36" fill="#FCFBFB"/>
<path d="M20.4075 19.3013C20.4075 26.6702 20.4075 23.8205 20.4075 32.3569C27.7764 32.3569 33.75 26.3832 33.75 19.0144C33.75 11.6455 27.7764 5.67188 20.4075 5.67188C20.4075 14.5669 20.4075 11.9325 20.4075 19.3013Z" fill="#ECECEC"/>
<path d="M20.407 19.3013C20.407 26.6702 20.407 23.8205 20.407 32.3569C13.0381 32.3569 7.06445 26.3832 7.06445 19.0144C7.06445 11.6455 13.0381 5.67188 20.407 5.67188C20.407 14.5669 20.407 11.9325 20.407 19.3013Z" fill="#1246B0"/>
<rect x="15.4316" y="11.5544" width="9.9471" height="4.78226" rx="2.39113" fill="#1246B0"/>
<rect x="2.25293" y="16.6082" width="9.9471" height="4.78226" rx="2.39113" fill="#1246B0"/>
<rect x="15.4316" y="21.6921" width="9.9471" height="4.78226" rx="2.39113" fill="#1246B0"/>
</svg>
